<svg width="82" height="59" viewBox="0 0 82 59" fill="none" xmlns="http://www.w3.org/2000/svg">
<path d="M33.875 45.5312H19.625M26.75 34.8437H19.625M5.375 22.375H76.625M5.375 29.5C5.375 16.065 5.375 9.34747 9.54872 5.17372C13.7225 1 20.44 1 33.875 1H48.125C61.5599 1 68.2777 1 72.4512 5.17372C76.625 9.34747 76.625 16.065 76.625 29.5C76.625 42.9349 76.625 49.6527 72.4512 53.8262C68.2777 58 61.5599 58 48.125 58H33.875C20.44 58 13.7225 58 9.54872 53.8262C5.375 49.6527 5.375 42.9349 5.375 29.5ZM48.125 40.1875C48.125 36.8288 48.125 35.1494 49.1685 34.106C50.2119 33.0625 51.8913 33.0625 55.25 33.0625C58.6087 33.0625 60.2881 33.0625 61.3315 34.106C62.375 35.1494 62.375 36.8288 62.375 40.1875C62.375 43.5462 62.375 45.2256 61.3315 46.269C60.2881 47.3125 58.6087 47.3125 55.25 47.3125C51.8913 47.3125 50.2119 47.3125 49.1685 46.269C48.125 45.2256 48.125 43.5462 48.125 40.1875Z" stroke="white" stroke-width="2" stroke-linecap="round"/>
</svg>
