<svg width="84" height="59" viewBox="0 0 84 59" fill="none" xmlns="http://www.w3.org/2000/svg">
<path fill-rule="evenodd" clip-rule="evenodd" d="M65.2388 57.9885C74.6868 58.33 82.631 51.0178 83 41.6401V17.3598C82.631 7.98251 74.6868 0.67007 65.2388 1.01148H18.7612C9.31328 0.67007 1.36892 7.98251 1 17.3598V41.6401C1.36892 51.0178 9.31328 58.33 18.7612 57.9885H65.2388Z" stroke="white" stroke-width="2" stroke-linecap="round" stroke-linejoin="round"/>
<path fill-rule="evenodd" clip-rule="evenodd" d="M39.9828 18.003L52.9429 26.7447C53.7826 27.2315 54.2988 28.124 54.2988 29.0889C54.2988 30.0543 53.7826 30.9468 52.9429 31.4331L39.9828 40.9971C37.5228 42.6535 33.8 41.2413 33.8 38.6529V20.339C33.8 17.7628 37.5269 16.3465 39.9828 18.003Z" stroke="white" stroke-width="2" stroke-linecap="round" stroke-linejoin="round"/>
</svg>
