<svg width="82" height="60" viewBox="0 0 82 60" fill="none" xmlns="http://www.w3.org/2000/svg">
<path d="M30.6429 1C40.9391 1 49.2857 13.9838 49.2857 30M30.6429 1C20.3467 1 12 13.9838 12 30C12 46.0164 20.3467 59 30.6429 59M30.6429 1H53.4286C62.5806 1 70 13.9838 70 30M49.2857 30C49.2857 46.0164 40.9391 59 30.6429 59M49.2857 30H70M30.6429 59H53.4286C62.5806 59 70 46.0164 70 30M67.2094 46.1111H46.1463M67.2094 13.8889H46.1463M30.6429 17.1111C34.0748 17.1111 36.8571 22.8817 36.8571 30C36.8571 37.1182 34.0748 42.8889 30.6429 42.8889C27.2108 42.8889 24.4286 37.1182 24.4286 30C24.4286 22.8817 27.2108 17.1111 30.6429 17.1111Z" stroke="white" stroke-width="1.5" stroke-linecap="round" stroke-linejoin="round"/>
</svg>
