<svg width="13" height="12" viewBox="0 0 13 12" fill="none" xmlns="http://www.w3.org/2000/svg">
<path d="M3.67988 1.8001H12.5L11.3 6.0001H4.32605M11.9 8.4001H4.7L3.5 0.600098H1.7M1.7 3.6001H0.5M2.3 5.4001H0.5M2.9 7.2001H0.5M5.3 10.8001C5.3 11.1315 5.03137 11.4001 4.7 11.4001C4.36863 11.4001 4.1 11.1315 4.1 10.8001C4.1 10.4687 4.36863 10.2001 4.7 10.2001C5.03137 10.2001 5.3 10.4687 5.3 10.8001ZM11.9 10.8001C11.9 11.1315 11.6314 11.4001 11.3 11.4001C10.9686 11.4001 10.7 11.1315 10.7 10.8001C10.7 10.4687 10.9686 10.2001 11.3 10.2001C11.6314 10.2001 11.9 10.4687 11.9 10.8001Z" stroke="black" stroke-linecap="round" stroke-linejoin="round"/>
</svg>
