<svg width="26" height="30" viewBox="0 0 26 30" fill="none" xmlns="http://www.w3.org/2000/svg">
<path d="M22 6L20.7987 24.0193C20.6935 25.5975 20.6408 26.3867 20.3 26.985C19.9999 27.5118 19.5472 27.9353 19.0017 28.1997C18.382 28.5 17.591 28.5 16.0093 28.5H9.99065C8.4089 28.5 7.61803 28.5 6.99833 28.1997C6.45275 27.9353 6.00008 27.5118 5.69998 26.985C5.3591 26.3867 5.3065 25.5975 5.20129 24.0193L4 6M1 6H25M19 6L18.5941 4.7821C18.2006 3.60187 18.0039 3.01176 17.6391 2.57547C17.3169 2.19019 16.9031 1.89198 16.4357 1.70817C15.9064 1.5 15.2845 1.5 14.0404 1.5H11.9596C10.7155 1.5 10.0936 1.5 9.56426 1.70817C9.09688 1.89198 8.68312 2.19019 8.36094 2.57547C7.99608 3.01176 7.79938 3.60187 7.40596 4.7821L7 6" stroke="white" stroke-width="2" stroke-linecap="round" stroke-linejoin="round"/>
</svg>
