<svg width="30" height="28" viewBox="0 0 30 28" fill="none" xmlns="http://www.w3.org/2000/svg">
<path d="M22.7778 21.7779H22.7933M23.4 17.1112H24.3333C25.783 17.1112 26.5077 17.1112 27.0795 17.348C27.8417 17.6638 28.4475 18.2695 28.7632 19.0317C29 19.6035 29 20.3283 29 21.7779C29 23.2275 29 23.9522 28.7632 24.5241C28.4475 25.2863 27.8417 25.892 27.0795 26.2078C26.5077 26.4446 25.783 26.4446 24.3333 26.4446H5.66667C4.21708 26.4446 3.49228 26.4446 2.92054 26.2078C2.15824 25.892 1.55258 25.2863 1.23682 24.5241C1 23.9522 1 23.2275 1 21.7779C1 20.3283 1 19.6035 1.23682 19.0317C1.55258 18.2695 2.15824 17.6638 2.92054 17.348C3.49228 17.1112 4.21708 17.1112 5.66667 17.1112H6.6M15 18.6668V1.55566M15 18.6668L10.3333 14.0001M15 18.6668L19.6667 14.0001" stroke="white" stroke-width="2" stroke-linecap="round" stroke-linejoin="round"/>
</svg>
