<svg width="10" height="12" viewBox="0 0 10 12" fill="none" xmlns="http://www.w3.org/2000/svg">
<path d="M4.16667 1.16675C4.16667 0.614464 3.71895 0.166748 3.16667 0.166748H1C0.447715 0.166748 0 0.614463 0 1.16675V10.8334C0 11.3857 0.447715 11.8334 1 11.8334H3.16667C3.71895 11.8334 4.16667 11.3857 4.16667 10.8334V1.16675Z" fill="#1A1126"/>
<path d="M10 1.16675C10 0.614464 9.55229 0.166748 9 0.166748H6.83333C6.28105 0.166748 5.83333 0.614463 5.83333 1.16675V10.8334C5.83333 11.3857 6.28105 11.8334 6.83333 11.8334H9C9.55229 11.8334 10 11.3857 10 10.8334V1.16675Z" fill="#1A1126"/>
</svg>
