<svg width="20" height="20" viewBox="0 0 20 20" fill="none" xmlns="http://www.w3.org/2000/svg">
<g clip-path="url(#clip0_208_1848)">
<path d="M1.99199 5.99609H-0.0100098V18.0081C-0.0100098 19.1122 0.887888 20.0101 1.99199 20.0101H14.004V18.0081H1.99199V5.99609Z" fill="white"/>
<path d="M18.008 -0.0100098H5.99599C5.46503 -0.0100098 4.95581 0.200915 4.58036 0.576363C4.20491 0.951811 3.99399 1.46103 3.99399 1.99199V14.004C3.99399 14.535 4.20491 15.0442 4.58036 15.4196C4.95581 15.7951 5.46503 16.006 5.99599 16.006H18.008C18.539 16.006 19.0482 15.7951 19.4236 15.4196C19.7991 15.0442 20.01 14.535 20.01 14.004V1.99199C20.01 1.46103 19.7991 0.951811 19.4236 0.576363C19.0482 0.200915 18.539 -0.0100098 18.008 -0.0100098ZM8.99899 12.002V3.99399L16.006 7.998L8.99899 12.002Z" fill="white"/>
</g>
<defs>
<clipPath id="clip0_208_1848">
<rect width="20" height="20" fill="white"/>
</clipPath>
</defs>
</svg>
