<svg width="28" height="22" viewBox="0 0 28 22" fill="none" xmlns="http://www.w3.org/2000/svg">
<path d="M9.43939 17.5038L8.13636 20.0985C6.47662 19.4099 4.75793 18.7214 2.93075 17.5362C2.29357 17.1228 1.90722 16.4205 1.89191 15.6634C1.81243 11.7771 2.72813 7.8701 5.04671 3.73925C5.35015 3.19857 5.85573 2.80222 6.44209 2.59496C7.8409 2.10066 8.79048 1.71858 10.4167 1.44873L11.3939 3.23262C11.3939 3.23262 12.3712 2.90828 14 2.90828C15.6288 2.90828 16.6061 3.23262 16.6061 3.23262L17.5833 1.44873C19.2095 1.71858 20.1591 2.10066 21.5579 2.59496C22.1443 2.80222 22.6498 3.19857 22.9533 3.73925C25.2719 7.8701 26.1876 11.7771 26.1082 15.6634C26.0928 16.4205 25.7064 17.1228 25.0692 17.5362C23.2421 18.7214 21.5235 19.4099 19.8636 20.0985L18.5606 17.5038M7.48484 16.2064C7.48484 16.2064 10.7424 17.8281 14 17.8281C17.2576 17.8281 20.5151 16.2064 20.5151 16.2064" stroke="white" stroke-width="2" stroke-linecap="round" stroke-linejoin="round"/>
<path d="M9.92803 13.936C11.0975 13.936 12.0455 12.8469 12.0455 11.5034C12.0455 10.1599 11.0975 9.0708 9.92803 9.0708C8.75861 9.0708 7.81061 10.1599 7.81061 11.5034C7.81061 12.8469 8.75861 13.936 9.92803 13.936Z" fill="white"/>
<path d="M18.072 13.936C19.2414 13.936 20.1894 12.8469 20.1894 11.5034C20.1894 10.1599 19.2414 9.0708 18.072 9.0708C16.9025 9.0708 15.9545 10.1599 15.9545 11.5034C15.9545 12.8469 16.9025 13.936 18.072 13.936Z" fill="white"/>
</svg>
