<svg width="26" height="26" viewBox="0 0 26 26" fill="none" xmlns="http://www.w3.org/2000/svg">
<path d="M8.45714 0.806641C12.7177 0.806641 16.1714 6.17923 16.1714 12.8066M8.45714 0.806641C4.19666 0.806641 0.742859 6.17923 0.742859 12.8066C0.742859 19.4341 4.19666 24.8066 8.45714 24.8066M8.45714 0.806641H17.8857C21.6727 0.806641 24.7429 6.17923 24.7429 12.8066M16.1714 12.8066C16.1714 19.4341 12.7177 24.8066 8.45714 24.8066M16.1714 12.8066H24.7429M8.45714 24.8066H17.8857C21.6727 24.8066 24.7429 19.4341 24.7429 12.8066M23.5881 19.4733H14.8723M23.5881 6.13997H14.8723M8.45714 7.47331C9.87726 7.47331 11.0286 9.86112 11.0286 12.8066C11.0286 15.7521 9.87726 18.14 8.45714 18.14C7.03698 18.14 5.88572 15.7521 5.88572 12.8066C5.88572 9.86112 7.03698 7.47331 8.45714 7.47331Z" stroke="white" stroke-width="1.5" stroke-linecap="round" stroke-linejoin="round"/>
</svg>
