<svg width="26" height="19" viewBox="0 0 26 19" fill="none" xmlns="http://www.w3.org/2000/svg">
<path fill-rule="evenodd" clip-rule="evenodd" d="M19.5445 17.8034C22.3097 17.904 24.6349 15.748 24.7429 12.983V5.82379C24.6349 3.05883 22.3097 0.902718 19.5445 1.00339H5.94126C3.17601 0.902718 0.850835 3.05883 0.742859 5.82379V12.983C0.850835 15.748 3.17601 17.904 5.94126 17.8034H19.5445Z" stroke="white" stroke-width="1.5" stroke-linecap="round" stroke-linejoin="round"/>
<path fill-rule="evenodd" clip-rule="evenodd" d="M12.1525 6.01341L15.9457 8.59096C16.1914 8.73448 16.3425 8.99764 16.3425 9.28216C16.3425 9.5668 16.1914 9.82996 15.9457 9.97336L12.1525 12.7934C11.4325 13.2818 10.3429 12.8654 10.3429 12.1022V6.70221C10.3429 5.94261 11.4337 5.52501 12.1525 6.01341Z" stroke="white" stroke-width="1.5" stroke-linecap="round" stroke-linejoin="round"/>
</svg>
