<svg width="25" height="25" viewBox="0 0 25 25" fill="none" xmlns="http://www.w3.org/2000/svg">
<path d="M21.0603 16.278V12.8503C21.0603 12.561 20.9453 12.2835 20.7408 12.0789C20.5362 11.8743 20.2587 11.7594 19.9694 11.7594H13.4239V9.42269C14.4523 9.15717 15.3485 8.52571 15.9446 7.64668C16.5407 6.76765 16.7957 5.70139 16.6619 4.64778C16.528 3.59417 16.0145 2.62553 15.2176 1.92343C14.4207 1.22134 13.3951 0.833984 12.333 0.833984C11.2709 0.833984 10.2453 1.22134 9.44839 1.92343C8.65148 2.62553 8.13798 3.59417 8.00415 4.64778C7.87033 5.70139 8.12536 6.76765 8.72144 7.64668C9.31753 8.52571 10.2137 9.15717 11.2421 9.42269V11.7594H4.69665C4.40732 11.7594 4.12985 11.8743 3.92526 12.0789C3.72068 12.2835 3.60574 12.561 3.60574 12.8503V16.278C2.57739 16.5435 1.68117 17.1749 1.08509 18.054C0.489003 18.933 0.233971 19.9992 0.367798 21.0529C0.501624 22.1065 1.01512 23.0751 1.81204 23.7772C2.60895 24.4793 3.63457 24.8667 4.69665 24.8667C5.75873 24.8667 6.78435 24.4793 7.58127 23.7772C8.37818 23.0751 8.89168 22.1065 9.0255 21.0529C9.15933 19.9992 8.9043 18.933 8.30821 18.054C7.71213 17.1749 6.81591 16.5435 5.78756 16.278V13.9412H18.8785V16.278C17.8501 16.5435 16.9539 17.1749 16.3578 18.054C15.7617 18.933 15.5067 19.9992 15.6405 21.0529C15.7743 22.1065 16.2878 23.0751 17.0848 23.7772C17.8817 24.4793 18.9073 24.8667 19.9694 24.8667C21.0314 24.8667 22.0571 24.4793 22.854 23.7772C23.6509 23.0751 24.1644 22.1065 24.2982 21.0529C24.432 19.9992 24.177 18.933 23.5809 18.054C22.9848 17.1749 22.0886 16.5435 21.0603 16.278ZM6.87847 20.4867C6.87847 20.9182 6.75051 21.34 6.51076 21.6988C6.27102 22.0576 5.93027 22.3373 5.5316 22.5024C5.13292 22.6675 4.69423 22.7108 4.271 22.6266C3.84777 22.5424 3.45901 22.3346 3.15387 22.0295C2.84874 21.7243 2.64094 21.3356 2.55676 20.9123C2.47257 20.4891 2.51578 20.0504 2.68092 19.6517C2.84605 19.2531 3.1257 18.9123 3.4845 18.6726C3.8433 18.4328 4.26513 18.3049 4.69665 18.3049C5.2753 18.3049 5.83026 18.5347 6.23943 18.9439C6.6486 19.3531 6.87847 19.908 6.87847 20.4867ZM10.1512 5.21396C10.1512 4.78244 10.2792 4.36061 10.5189 4.00181C10.7586 3.64301 11.0994 3.36336 11.4981 3.19823C11.8967 3.03309 12.3354 2.98988 12.7587 3.07407C13.1819 3.15826 13.5707 3.36605 13.8758 3.67119C14.1809 3.97632 14.3887 4.36508 14.4729 4.78831C14.5571 5.21154 14.5139 5.65023 14.3487 6.04891C14.1836 6.44758 13.904 6.78833 13.5452 7.02808C13.1864 7.26782 12.7645 7.39578 12.333 7.39578C11.7544 7.39578 11.1994 7.16591 10.7902 6.75674C10.3811 6.34757 10.1512 5.79262 10.1512 5.21396ZM19.9694 22.6685C19.5378 22.6685 19.116 22.5405 18.7572 22.3008C18.3984 22.061 18.1188 21.7203 17.9536 21.3216C17.7885 20.9229 17.7453 20.4843 17.8295 20.061C17.9137 19.6378 18.1215 19.249 18.4266 18.9439C18.7317 18.6388 19.1205 18.431 19.5437 18.3468C19.9669 18.2626 20.4056 18.3058 20.8043 18.4709C21.203 18.6361 21.5437 18.9157 21.7835 19.2745C22.0232 19.6333 22.1512 20.0552 22.1512 20.4867C22.1512 21.0653 21.9213 21.6203 21.5121 22.0295C21.103 22.4386 20.548 22.6685 19.9694 22.6685Z" fill="white"/>
</svg>
