<svg width="26" height="26" viewBox="0 0 26 26" fill="none" xmlns="http://www.w3.org/2000/svg">
<path d="M20.7429 5.30664H20.7562M16.7429 5.30664H16.7562M20.7429 20.3066H20.7562M16.7429 20.3066H16.7562M4.74286 9.80664H20.7429C21.9854 9.80664 22.6066 9.80664 23.0967 9.57828C23.7501 9.2738 24.2693 8.68977 24.5399 7.9547C24.7429 7.40337 24.7429 6.70446 24.7429 5.30664C24.7429 3.90882 24.7429 3.20991 24.5399 2.65859C24.2693 1.92351 23.7501 1.33949 23.0967 1.035C22.6066 0.80664 21.9854 0.806641 20.7429 0.806641H4.74286C3.50035 0.806641 2.8791 0.80664 2.38903 1.035C1.73563 1.33949 1.2165 1.92351 0.945846 2.65859C0.742859 3.20991 0.742859 3.90882 0.742859 5.30664C0.742859 6.70446 0.742859 7.40337 0.945846 7.9547C1.2165 8.68977 1.73563 9.2738 2.38903 9.57828C2.8791 9.80664 3.50035 9.80664 4.74286 9.80664ZM4.74286 24.8066H20.7429C21.9854 24.8066 22.6066 24.8066 23.0967 24.5783C23.7501 24.2738 24.2693 23.6897 24.5399 22.9547C24.7429 22.4033 24.7429 21.7045 24.7429 20.3066C24.7429 18.9088 24.7429 18.2099 24.5399 17.6585C24.2693 16.9235 23.7501 16.3394 23.0967 16.0349C22.6066 15.8066 21.9854 15.8066 20.7429 15.8066H4.74286C3.50035 15.8066 2.8791 15.8066 2.38903 16.0349C1.73563 16.3394 1.2165 16.9235 0.945846 17.6585C0.742859 18.2099 0.742859 18.9088 0.742859 20.3066C0.742859 21.7045 0.742859 22.4033 0.945846 22.9547C1.2165 23.6897 1.73563 24.2738 2.38903 24.5783C2.8791 24.8066 3.50035 24.8066 4.74286 24.8066Z" stroke="white" stroke-width="1.5" stroke-linecap="round" stroke-linejoin="round"/>
</svg>
