<svg width="30" height="25" viewBox="0 0 30 25" fill="none" xmlns="http://www.w3.org/2000/svg">
<path fill-rule="evenodd" clip-rule="evenodd" d="M11.9226 0.806641H17.5631C20.0835 0.806614 22.0797 0.8066 23.6421 1.01666C25.2499 1.23283 26.5514 1.68831 27.5778 2.71463C28.604 3.74096 29.0595 5.04238 29.2757 6.65027C29.3997 7.57306 29.4506 8.64724 29.4713 9.89137C29.4808 9.94743 29.4857 10.005 29.4857 10.0638C29.4857 10.1122 29.4824 10.1596 29.476 10.2063C29.4857 10.9821 29.4857 11.8217 29.4857 12.7293V12.884C29.4857 15.4044 29.4857 17.4007 29.2757 18.963C29.0595 20.5708 28.604 21.8723 27.5778 22.8987C26.5514 23.925 25.2499 24.3804 23.6421 24.5967C22.0797 24.8066 20.0835 24.8066 17.5631 24.8066H11.9226C9.40228 24.8066 7.40598 24.8066 5.84363 24.5967C4.23574 24.3804 2.93432 23.925 1.90799 22.8987C0.881665 21.8723 0.426186 20.5708 0.210021 18.963C-4.02382e-05 17.4007 -2.64578e-05 15.4044 9.70758e-07 12.884V12.7293C-1.27435e-05 11.8217 -1.26881e-05 10.9821 0.00979303 10.2063C0.0033336 10.1596 9.70758e-07 10.1121 9.70758e-07 10.0638C9.70758e-07 10.005 0.00492432 9.94745 0.0143872 9.89138C0.0351643 8.64725 0.0859483 7.57306 0.210021 6.65027C0.426186 5.04238 0.881665 3.74096 1.90799 2.71463C2.93432 1.68831 4.23574 1.23283 5.84363 1.01666C7.40598 0.8066 9.40227 0.806614 11.9226 0.806641ZM2.05987 11.0924C2.05727 11.625 2.05714 12.1951 2.05714 12.8066C2.05714 15.4217 2.05932 17.2796 2.24881 18.689C2.43431 20.0686 2.7822 20.8636 3.36261 21.444C3.94301 22.0244 4.73796 22.3724 6.11774 22.5578C7.5271 22.7473 9.38493 22.7495 12 22.7495H17.4857C20.1008 22.7495 21.9586 22.7473 23.368 22.5578C24.7477 22.3724 25.5427 22.0244 26.1231 21.444C26.7035 20.8636 27.0514 20.0686 27.2368 18.689C27.4264 17.2796 27.4286 15.4217 27.4286 12.8066C27.4286 12.1951 27.4284 11.625 27.4258 11.0924H2.05987ZM27.3928 9.03521H2.0929C2.11974 8.23055 2.16668 7.53534 2.24881 6.92438C2.43431 5.5446 2.7822 4.74965 3.36261 4.16925C3.94301 3.58884 4.73796 3.24095 6.11774 3.05546C7.5271 2.86596 9.38493 2.86378 12 2.86378H17.4857C20.1008 2.86378 21.9586 2.86596 23.368 3.05546C24.7477 3.24095 25.5427 3.58884 26.1231 4.16925C26.7035 4.74965 27.0514 5.5446 27.2368 6.92438C27.319 7.53534 27.366 8.23055 27.3928 9.03521ZM20.1673 13.1495H20.2899C20.8836 13.1494 21.4278 13.1494 21.8704 13.2089C22.358 13.2744 22.8732 13.4286 23.297 13.8525C23.7209 14.2763 23.8751 14.7915 23.9406 15.2791C24.0001 15.7217 24.0001 16.2659 24 16.8596V16.9822C24.0001 17.5759 24.0001 18.1201 23.9406 18.5628C23.8751 19.0503 23.7209 19.5656 23.297 19.9894C22.8732 20.4133 22.358 20.5674 21.8704 20.633C21.4278 20.6925 20.8836 20.6925 20.2899 20.6924H20.1673C19.5736 20.6925 19.0294 20.6925 18.5867 20.633C18.0992 20.5674 17.5839 20.4133 17.1601 19.9894C16.7362 19.5656 16.5821 19.0503 16.5165 18.5628C16.457 18.1201 16.457 17.5759 16.4571 16.9822V16.8596C16.457 16.2659 16.457 15.7217 16.5165 15.2791C16.5821 14.7915 16.7362 14.2763 17.1601 13.8525C17.5839 13.4286 18.0992 13.2744 18.5867 13.2089C19.0294 13.1494 19.5736 13.1494 20.1673 13.1495ZM18.6181 15.3052L18.6147 15.307L18.6129 15.3105C18.6115 15.3131 18.6092 15.3176 18.6064 15.3246C18.5941 15.3543 18.5731 15.4207 18.5553 15.5532C18.5165 15.8422 18.5143 16.2454 18.5143 16.9209C18.5143 17.5965 18.5165 17.9997 18.5553 18.2887C18.5731 18.4211 18.5941 18.4875 18.6064 18.5173C18.6075 18.5201 18.6096 18.5247 18.6096 18.5247C18.611 18.5277 18.6129 18.5314 18.6129 18.5314L18.6147 18.5348L18.6181 18.5366C18.6207 18.538 18.6252 18.5403 18.6322 18.5431C18.662 18.5554 18.7284 18.5764 18.8608 18.5942C19.1498 18.633 19.553 18.6352 20.2286 18.6352C20.9041 18.6352 21.3073 18.633 21.5963 18.5942C21.7288 18.5764 21.7952 18.5554 21.8249 18.5431C21.8319 18.5403 21.8364 18.538 21.839 18.5366L21.8425 18.5348L21.8443 18.5314C21.8456 18.5288 21.848 18.5243 21.8507 18.5173C21.863 18.4875 21.884 18.4211 21.9019 18.2887C21.9407 17.9997 21.9429 17.5965 21.9429 16.9209C21.9429 16.2454 21.9407 15.8422 21.9019 15.5532C21.884 15.4207 21.863 15.3543 21.8507 15.3246C21.8491 15.3205 21.8477 15.3173 21.8464 15.3147L21.8443 15.3105L21.8425 15.307L21.839 15.3052C21.8364 15.3039 21.8319 15.3015 21.8249 15.2988C21.7952 15.2865 21.7288 15.2655 21.5963 15.2476C21.3073 15.2088 20.9041 15.2066 20.2286 15.2066C19.553 15.2066 19.1498 15.2088 18.8608 15.2476C18.7284 15.2655 18.662 15.2865 18.6322 15.2988C18.6252 15.3015 18.6207 15.3039 18.6181 15.3052ZM5.48572 14.8638C5.48572 14.2957 5.94623 13.8352 6.51429 13.8352H9.25714C9.8252 13.8352 10.2857 14.2957 10.2857 14.8638C10.2857 15.4318 9.8252 15.8924 9.25714 15.8924H6.51429C5.94623 15.8924 5.48572 15.4318 5.48572 14.8638ZM18.6147 18.5348V18.5348V18.5348ZM21.8425 18.5348V18.5348ZM5.48572 18.9781C5.48572 18.41 5.94623 17.9495 6.51429 17.9495H12C12.568 17.9495 13.0286 18.41 13.0286 18.9781C13.0286 19.5461 12.568 20.0066 12 20.0066H6.51429C5.94623 20.0066 5.48572 19.5461 5.48572 18.9781Z" fill="white"/>
</svg>
