<svg width="24" height="22" viewBox="0 0 24 22" fill="none" xmlns="http://www.w3.org/2000/svg">
<path fill-rule="evenodd" clip-rule="evenodd" d="M14.1179 0.411621V21.5885H11.708L6.06081 15.9413H2.11769C0.950125 15.9413 0 14.9912 0 13.8236V8.17646C0 7.00891 0.950125 6.05878 2.11769 6.05878H6.06081L11.708 0.411621H14.1179ZM12.7061 1.82341H12.2925L7.05895 7.05691V14.9432L12.2925 20.1767H12.7061V1.82341ZM20.8997 3.51233C22.8988 5.51283 24 8.17125 24 11.0005C24 13.8283 22.8988 16.4867 20.8997 18.4872L19.9016 17.4891C21.6353 15.7554 22.5882 13.4513 22.5882 11.0005C22.5882 8.54818 21.6353 6.24415 19.9016 4.51047L20.8997 3.51233ZM17.9108 6.50915C19.1066 7.72187 19.7645 9.3172 19.7645 11C19.7645 12.6829 19.1066 14.2782 17.9108 15.4909L16.9042 14.4999C17.8388 13.5526 18.3527 12.3102 18.3527 11C18.3527 9.68991 17.8388 8.44753 16.9042 7.50022L17.9108 6.50915ZM5.64716 7.47057H2.11769C1.72944 7.47057 1.41179 7.78682 1.41179 8.17646V13.8236C1.41179 14.2133 1.72944 14.5295 2.11769 14.5295H5.64716V7.47057Z" fill="white"/>
</svg>
