<svg width="25" height="24" viewBox="0 0 25 24" fill="none" xmlns="http://www.w3.org/2000/svg">
<path d="M12.5 0C13.1838 0 13.7473 0.514725 13.8244 1.17784L13.8333 1.33333V22.6667C13.8333 23.4031 13.2364 24 12.5 24C11.8162 24 11.2527 23.4853 11.1756 22.8222L11.1667 22.6667V1.33333C11.1667 0.59696 11.7636 0 12.5 0ZM7.16667 4C7.90304 4 8.5 4.59696 8.5 5.33333V18.6667C8.5 19.4031 7.90304 20 7.16667 20C6.43029 20 5.83333 19.4031 5.83333 18.6667V5.33333C5.83333 4.59696 6.43029 4 7.16667 4ZM17.8333 4C18.5697 4 19.1667 4.59696 19.1667 5.33333V18.6667C19.1667 19.4031 18.5697 20 17.8333 20C17.0969 20 16.5 19.4031 16.5 18.6667V5.33333C16.5 4.59696 17.0969 4 17.8333 4ZM1.83333 8C2.56971 8 3.16667 8.59696 3.16667 9.33333V14.6667C3.16667 15.4031 2.56971 16 1.83333 16C1.09696 16 0.5 15.4031 0.5 14.6667V9.33333C0.5 8.59696 1.09696 8 1.83333 8ZM23.1667 8C23.8505 8 24.414 8.51473 24.491 9.17784L24.5 9.33333V14.6667C24.5 15.4031 23.9031 16 23.1667 16C22.4829 16 21.9193 15.4853 21.8423 14.8222L21.8333 14.6667V9.33333C21.8333 8.59696 22.4303 8 23.1667 8Z" fill="white"/>
</svg>
