<svg width="22" height="22" viewBox="0 0 22 22" fill="none" xmlns="http://www.w3.org/2000/svg">
<path d="M7.66667 18.7778C7.66667 20.0051 6.17428 21 4.33333 21C2.49239 21 1 20.0051 1 18.7778C1 17.5504 2.49239 16.5556 4.33333 16.5556C6.17428 16.5556 7.66667 17.5504 7.66667 18.7778ZM7.66667 18.7778V3.22222L21 1V16.5556M21 16.5556C21 17.7829 19.5077 18.7778 17.6667 18.7778C15.8257 18.7778 14.3333 17.7829 14.3333 16.5556C14.3333 15.3282 15.8257 14.3333 17.6667 14.3333C19.5077 14.3333 21 15.3282 21 16.5556ZM7.66667 7.66667L21 5.44444" stroke="white" stroke-width="1.5" stroke-linecap="round" stroke-linejoin="round"/>
</svg>
