<svg width="26" height="18" viewBox="0 0 26 18" fill="none" xmlns="http://www.w3.org/2000/svg">
<path d="M18.3333 6.33333L21.7691 4.27189C22.8265 3.63737 23.3553 3.32012 23.7904 3.36068C24.1697 3.39604 24.5159 3.592 24.7413 3.89911C25 4.25131 25 4.86793 25 6.1012V11.8988C25 13.132 25 13.7487 24.7413 14.1009C24.5159 14.408 24.1697 14.604 23.7904 14.6393C23.3553 14.6799 22.8265 14.3627 21.7691 13.7281L18.3333 11.6667M5.26667 17H14.0667C15.5601 17 16.3069 17 16.8773 16.7093C17.3791 16.4537 17.7871 16.0457 18.0427 15.544C18.3333 14.9736 18.3333 14.2268 18.3333 12.7333V5.26667C18.3333 3.7732 18.3333 3.02645 18.0427 2.45603C17.7871 1.95425 17.3791 1.54631 16.8773 1.29065C16.3069 1 15.5601 1 14.0667 1H5.26667C3.7732 1 3.02645 1 2.45603 1.29065C1.95425 1.54631 1.54631 1.95425 1.29065 2.45603C1 3.02645 1 3.77319 1 5.26667V12.7333C1 14.2268 1 14.9736 1.29065 15.544C1.54631 16.0457 1.95425 16.4537 2.45603 16.7093C3.02645 17 3.77319 17 5.26667 17Z" stroke="white" stroke-width="2" stroke-linecap="round" stroke-linejoin="round"/>
</svg>
