<svg width="24" height="24" viewBox="0 0 24 24" fill="none" xmlns="http://www.w3.org/2000/svg">
<path fill-rule="evenodd" clip-rule="evenodd" d="M19.2 4.8V2.4C20.5236 2.4 21.6 3.4764 21.6 4.8H19.2ZM16.8 19.2C16.8 20.5236 15.7236 21.6 14.4 21.6V19.2C14.4 17.874 13.326 16.8 12 16.8H7.2V4.8C7.2 3.474 8.274 2.4 9.6 2.4H16.8V19.2ZM12 21.6H4.8C3.4764 21.6 2.4 20.5236 2.4 19.2H10.8C11.4624 19.2 12 19.7376 12 20.4V21.6ZM19.2 0H9.6C6.9492 0 4.8 2.1492 4.8 4.8V16.8H1.2C0.5376 16.8 0 17.3376 0 18V19.2C0 21.8508 2.1492 24 4.8 24H14.4C17.0508 24 19.2 21.8508 19.2 19.2V7.2H22.8C23.4624 7.2 24 6.6624 24 6V4.8C24 2.1492 21.8508 0 19.2 0Z" fill="white"/>
</svg>
